HIERARCHY
ROOT Hips
{
	OFFSET 0.000000 0.000000 0.000000
	CHANNELS 6 Xposition Yposition Zposition Zrotation Xrotation Yrotation
	JOINT Spine
	{
		OFFSET 0.000000 0.000000 -1.053067
		CHANNELS 6 Xposition Yposition Zposition Zrotation Xrotation Yrotation
		JOINT Spine1
		{
			OFFSET 0.000000 0.000001 -2.382877
			CHANNELS 6 Xposition Yposition Zposition Zrotation Xrotation Yrotation
			JOINT Neck
			{
				OFFSET 0.000000 0.000001 -2.639722
				CHANNELS 6 Xposition Yposition Zposition Zrotation Xrotation Yrotation
				JOINT Head
				{
					OFFSET 0.000000 0.256846 -1.990555
					CHANNELS 6 Xposition Yposition Zposition Zrotation Xrotation Yrotation
					End Site
					{
						OFFSET 0.000000 0.000001 -2.568457
					}
				}
			}
			JOINT LeftShoulder
			{
				OFFSET 0.512620 -0.056020 -2.153831
				CHANNELS 6 Xposition Yposition Zposition Zrotation Xrotation Yrotation
				JOINT LeftArm
				{
					OFFSET 1.485729 0.000000 0.000000
					CHANNELS 6 Xposition Yposition Zposition Zrotation Xrotation Yrotation
					JOINT LeftForeArm
					{
						OFFSET 3.852898 0.000000 0.000000
						CHANNELS 6 Xposition Yposition Zposition Zrotation Xrotation Yrotation
						JOINT LeftHand
						{
							OFFSET 3.445927 0.000000 0.000000
							CHANNELS 6 Xposition Yposition Zposition Zrotation Xrotation Yrotation
							End Site
							{
								OFFSET 1.926343 0.000000 0.000000
							}
						}
					}
				}
			}
			JOINT RightShoulder
			{
				OFFSET -0.513668 -0.056020 -2.153831
				CHANNELS 6 Xposition Yposition Zposition Zrotation Xrotation Yrotation
				JOINT RightArm
				{
					OFFSET -1.485729 0.000000 0.000000
					CHANNELS 6 Xposition Yposition Zposition Zrotation Xrotation Yrotation
					JOINT RightForeArm
					{
						OFFSET -3.852898 0.000000 0.000000
						CHANNELS 6 Xposition Yposition Zposition Zrotation Xrotation Yrotation
						JOINT RightHand
						{
							OFFSET -3.445927 0.000000 0.000000
							CHANNELS 6 Xposition Yposition Zposition Zrotation Xrotation Yrotation
							End Site
							{
								OFFSET -1.926343 0.000000 0.000000
							}
						}
					}
				}
			}
		}
	}
	JOINT LeftUpLeg
	{
		OFFSET 1.284228 0.000000 0.000000
		CHANNELS 6 Xposition Yposition Zposition Zrotation Xrotation Yrotation
		JOINT LeftLeg
		{
			OFFSET 0.000000 -0.000003 6.684024
			CHANNELS 6 Xposition Yposition Zposition Zrotation Xrotation Yrotation
			JOINT LeftFoot
			{
				OFFSET 0.000000 -0.000003 5.369456
				CHANNELS 6 Xposition Yposition Zposition Zrotation Xrotation Yrotation
				JOINT LeftToeBase
				{
					OFFSET 0.000000 1.926342 0.834749
					CHANNELS 6 Xposition Yposition Zposition Zrotation Xrotation Yrotation
					End Site
					{
						OFFSET 0.000000 0.513691 0.000000
					}
				}
			}
		}
	}
	JOINT RightUpLeg
	{
		OFFSET -1.284228 0.000000 0.000000
		CHANNELS 6 Xposition Yposition Zposition Zrotation Xrotation Yrotation
		JOINT RightLeg
		{
			OFFSET 0.000000 -0.000003 6.684024
			CHANNELS 6 Xposition Yposition Zposition Zrotation Xrotation Yrotation
			JOINT RightFoot
			{
				OFFSET 0.000000 -0.000003 5.369456
				CHANNELS 6 Xposition Yposition Zposition Zrotation Xrotation Yrotation
				JOINT RightToeBase
				{
					OFFSET 0.000000 1.926342 0.834749
					CHANNELS 6 Xposition Yposition Zposition Zrotation Xrotation Yrotation
					End Site
					{
						OFFSET 0.000000 0.513691 0.000000
					}
				}
			}
		}
	}
}
MOTION
Frames: 6
Frame Time: 0.041667
-0.342638 9.891964 -12.058097 -85.040950 3.928326 4.264740 0.000001 0.000000 -1.053071 1.339068 -9.640509 1.427976 0.000001 0.000001 -2.382877 0.331450 0.999179 7.193762 -0.000002 0.000001 -2.639719 21.324588 12.545970 -23.331441 0.000002 0.256846 -1.990553 23.118730 7.707857 24.628484 0.512620 -0.056020 -2.153826 9.743414 -3.611400 13.451888 1.485730 -0.000000 -0.000003 1.597043 17.299030 -4.802624 3.852900 0.000000 0.000002 -0.827719 -18.418584 11.729971 3.445926 0.000000 -0.000002 2.981902 -19.401934 -41.315688 -0.513669 -0.056020 -2.153826 6.292921 11.879051 -6.228575 -1.485727 -0.000000 -0.000003 -73.429547 12.451545 76.471652 -3.852899 -0.000000 -0.000002 -14.676181 -12.360400 -20.433394 -3.445932 -0.000002 -0.000002 -4.667330 -15.337234 9.928505 1.284228 0.000000 -0.000001 -0.473510 -6.180368 -6.995819 0.000000 -0.000003 6.684024 -0.966291 11.939792 -3.721000 0.000001 -0.000002 5.369460 -24.572914 -11.717169 3.941593 0.000001 1.926342 0.834748 0.000002 0.000000 -0.000002 -1.284228 0.000000 -0.000003 -1.359674 -10.813877 -7.706411 0.000001 -0.000003 6.684022 5.442259 25.336368 2.938314 0.000002 -0.000003 5.369460 9.361002 -21.439639 2.463183 0.000000 1.926343 0.834749 -0.000003 -0.000001 -0.000000 
-0.338302 9.900332 -12.059244 -85.022509 3.920439 4.239045 0.000002 0.000000 -1.053066 1.350905 -9.674561 1.431966 -0.000000 0.000002 -2.382875 0.334135 1.010962 7.212798 0.000002 0.000001 -2.639725 21.315151 12.519406 -23.360601 -0.000002 0.256846 -1.990561 23.118052 7.720357 24.705815 0.512621 -0.056020 -2.153831 9.777230 -3.676400 13.496140 1.485729 -0.000001 0.000006 1.455736 17.040079 -4.735400 3.852899 -0.000001 -0.000003 -0.838643 -18.239233 11.632652 3.445926 0.000002 -0.000001 2.960653 -19.213011 -41.219724 -0.513666 -0.056021 -2.153827 6.273516 11.876767 -6.237324 -1.485725 -0.000001 0.000001 -73.272015 12.465091 76.397565 -3.852902 -0.000003 -0.000001 -14.695866 -12.263810 -20.340771 -3.445929 0.000001 -0.000003 -4.784998 -15.239300 9.829641 1.284229 0.000000 -0.000001 -0.416053 -6.150500 -6.930203 -0.000003 -0.000003 6.684024 -0.985625 11.956093 -3.736514 -0.000002 -0.000002 5.369456 -24.644499 -11.738657 3.907265 -0.000001 1.926342 0.834749 0.000001 0.000002 -0.000000 -1.284228 0.000000 -0.000002 -1.188682 -10.739625 -7.654577 0.000000 -0.000004 6.684022 5.482607 25.197714 2.965888 0.000001 -0.000002 5.369457 9.159104 -21.416579 2.413876 0.000002 1.926342 0.834748 -0.000006 0.000001 -0.000002 
-0.333974 9.907455 -12.060611 -85.011451 3.897766 4.232030 -0.000000 0.000000 -1.053067 1.364583 -9.660534 1.417293 0.000000 0.000001 -2.382878 0.341144 0.978851 7.238692 0.000002 0.000001 -2.639726 21.332831 12.529413 -23.370577 -0.000002 0.256846 -1.990563 23.143778 7.664986 24.738684 0.512620 -0.056020 -2.153835 9.714124 -3.650172 13.508673 1.485731 -0.000000 -0.000001 1.431022 16.862880 -4.679860 3.852897 0.000000 -0.000002 -0.898532 -18.140965 11.572283 3.445927 0.000000 -0.000002 2.989624 -19.120083 -41.211804 -0.513667 -0.056020 -2.153832 6.275064 11.896441 -6.235180 -1.485727 -0.000000 -0.000005 -73.166591 12.502329 76.332555 -3.852898 -0.000001 -0.000001 -14.691792 -12.168899 -20.338707 -3.445929 0.000000 0.000002 -4.801208 -15.150842 9.949949 1.284227 -0.000000 0.000002 -0.359950 -6.089247 -6.906546 -0.000000 -0.000003 6.684025 -1.008897 11.904834 -3.699411 -0.000001 -0.000002 5.369458 -24.684471 -11.707690 3.887438 0.000001 1.926343 0.834749 -0.000001 0.000002 0.000001 -1.284229 0.000000 0.000001 -0.917240 -10.672598 -7.610930 -0.000002 -0.000003 6.684023 5.431837 25.084235 2.996920 -0.000002 -0.000002 5.369461 9.011989 -21.408232 2.397047 -0.000001 1.926343 0.834749 -0.000003 -0.000000 -0.000001 
-0.330086 9.915359 -12.061944 -85.016608 3.892849 4.193713 -0.000000 0.000000 -1.053066 1.350455 -9.740308 1.410876 0.000002 0.000000 -2.382874 0.333106 1.013366 7.299060 0.000000 0.000001 -2.639724 21.410179 12.636150 -23.416018 0.000001 0.256846 -1.990555 23.216248 7.542462 24.809443 0.512621 -0.056020 -2.153831 9.851381 -3.559523 13.497590 1.485730 0.000001 0.000001 1.253643 16.672077 -4.634031 3.852898 0.000000 -0.000002 -0.939943 -18.026022 11.546055 3.445927 0.000001 -0.000000 2.996143 -19.002725 -41.154110 -0.513665 -0.056020 -2.153831 6.260955 11.907697 -6.223079 -1.485725 -0.000001 0.000002 -72.921456 12.529946 76.258167 -3.852898 -0.000000 0.000000 -14.728507 -12.157826 -20.312568 -3.445930 -0.000003 -0.000005 -4.881314 -15.143265 9.794154 1.284229 0.000000 0.000001 -0.354965 -6.046483 -6.846033 0.000002 -0.000003 6.684026 -0.956062 11.840820 -3.685111 -0.000002 -0.000002 5.369458 -24.738962 -11.689093 3.918491 0.000001 1.926343 0.834749 -0.000002 -0.000003 -0.000001 -1.284228 0.000000 0.000001 -0.728905 -10.605715 -7.565851 0.000002 -0.000003 6.684024 5.444464 24.956488 3.081263 0.000003 -0.000002 5.369458 8.842120 -21.364833 2.327651 -0.000001 1.926342 0.834749 -0.000002 -0.000002 -0.000001 
-0.326529 9.922585 -12.063673 -85.029913 3.885337 4.174880 0.000001 0.000000 -1.053067 1.354811 -9.739486 1.413580 -0.000000 0.000001 -2.382879 0.336535 0.978038 7.316916 -0.000001 0.000001 -2.639721 21.434766 12.629891 -23.429675 0.000001 0.256847 -1.990555 23.245728 7.529118 24.847907 0.512620 -0.056020 -2.153828 9.848629 -3.568774 13.533915 1.485729 -0.000000 0.000002 1.223033 16.561278 -4.622872 3.852897 0.000000 0.000003 -0.965440 -17.925753 11.526149 3.445927 0.000001 -0.000001 3.005707 -18.904128 -41.152921 -0.513670 -0.056020 -2.153828 6.322737 11.894844 -6.219985 -1.485729 -0.000001 -0.000000 -72.976890 12.590754 76.257047 -3.852902 -0.000000 -0.000002 -14.700032 -12.209759 -20.373097 -3.445927 -0.000000 0.000001 -4.820700 -15.197485 9.920499 1.284227 0.000000 0.000002 -0.316426 -6.038874 -6.797032 0.000000 -0.000003 6.684024 -1.013465 11.894007 -3.690154 -0.000001 -0.000002 5.369460 -24.766674 -11.697820 3.889830 -0.000000 1.926342 0.834749 -0.000006 0.000001 0.000001 -1.284227 0.000000 0.000000 -0.479364 -10.551479 -7.531494 0.000001 -0.000004 6.684025 5.364070 24.840642 3.176699 -0.000000 -0.000002 5.369459 8.712722 -21.319566 2.273586 0.000002 1.926342 0.834749 0.000000 0.000000 -0.000001 
-0.323335 9.929580 -12.065003 -85.060000 3.871863 4.153945 -0.000002 0.000000 -1.053064 1.407274 -9.720115 1.452415 -0.000001 0.000002 -2.382877 0.358030 0.901386 7.298608 -0.000001 0.000001 -2.639720 21.422323 12.634644 -23.427810 -0.000000 0.256846 -1.990558 23.231842 7.523633 24.812325 0.512621 -0.056020 -2.153829 9.807010 -3.524161 13.532776 1.485729 -0.000001 -0.000004 1.176424 16.532512 -4.545592 3.852900 0.000001 0.000004 -0.981754 -17.879762 11.454915 3.445928 0.000000 -0.000009 2.998817 -18.852989 -41.082970 -0.513667 -0.056020 -2.153829 6.316307 11.961585 -6.261615 -1.485728 0.000000 -0.000000 -72.658951 12.525613 76.124863 -3.852900 -0.000001 -0.000002 -14.783355 -12.143629 -20.323289 -3.445927 -0.000000 -0.000000 -4.778988 -15.138016 9.946938 1.284227 0.000000 0.000003 -0.300756 -6.005997 -6.758722 0.000000 -0.000003 6.684024 -1.055863 11.889991 -3.648098 -0.000001 -0.000002 5.369455 -24.714761 -11.682245 3.853970 0.000002 1.926341 0.834750 0.000002 0.000002 0.000000 -1.284229 -0.000000 0.000003 -0.193625 -10.509635 -7.484540 -0.000002 -0.000003 6.684021 5.304055 24.753997 3.239985 -0.000000 -0.000002 5.369459 8.590229 -21.278932 2.316937 -0.000001 1.926344 0.834750 0.000001 -0.000003 0.000001 
